<svg version="1.1" id="Layer_1" xmlns="http://www.w3.org/2000/svg" xmlns:xlink="http://www.w3.org/1999/xlink" x="0px" y="0px"
	 width="100%" viewBox="0 0 496 496" enable-background="new 0 0 496 496" xml:space="preserve">
<path fill="#000000" opacity="1.000000" stroke="none" 
	d="
M303.038727,416.963654 
	C310.239624,419.198456 318.183289,421.148804 325.059967,420.109650 
	C333.487518,418.836151 341.090668,420.634064 348.935364,421.660736 
	C356.462311,422.645813 358.243835,426.505280 359.316071,434.383545 
	C360.935364,434.827637 362.680176,435.284088 364.412140,435.784882 
	C372.805664,438.211700 376.088562,446.898438 371.565552,454.439545 
	C370.210785,456.698364 368.170746,458.582001 367.683868,461.344421 
	C367.486298,462.465271 366.679657,463.128113 365.585052,463.140625 
	C360.655701,463.197052 355.503052,464.223877 351.496460,460.029144 
	C347.248779,455.582092 345.537720,450.678436 347.713043,444.525330 
	C350.200500,437.489258 348.665741,434.916046 341.742157,434.483521 
	C317.733032,432.983582 293.718506,431.549469 269.693695,430.333313 
	C260.402405,429.862976 256.248932,428.890503 257.836212,443.613190 
	C258.285278,447.778503 259.679230,452.357666 254.926880,455.271820 
	C261.527557,461.688019 263.151703,476.410736 258.231537,483.928528 
	C257.790619,484.602264 257.194702,485.555359 256.554596,485.658600 
	C250.640442,486.612671 244.679749,487.489227 238.951508,484.815979 
	C237.411102,484.097137 236.685669,482.497101 237.389359,481.024567 
	C239.526077,476.553101 238.319962,471.830627 238.787903,467.244354 
	C239.282959,462.392426 239.598434,457.328766 246.737549,456.310333 
	C240.772903,450.899506 243.493820,444.259918 242.901367,438.223145 
	C242.254211,431.628998 241.293610,429.978424 234.665512,430.438324 
	C221.772247,431.332977 208.804871,431.137329 195.999130,433.787079 
	C190.682556,434.887207 185.138870,435.400574 179.322083,434.706573 
	C171.680161,433.794800 163.732025,435.010864 155.962570,435.783966 
	C151.831345,436.195038 151.117310,439.083069 153.268600,444.313965 
	C156.390076,451.903839 154.551147,458.855835 147.648514,462.893616 
	C142.896988,465.673035 137.463943,465.251160 131.681717,464.430115 
	C132.650345,460.967987 130.772629,458.877686 128.991821,456.520874 
	C125.766968,452.253021 125.807236,447.435547 128.332123,442.866058 
	C131.235382,437.611877 135.951355,435.669678 142.525711,436.744171 
	C140.061096,432.273651 142.320450,428.894104 144.501740,425.763794 
	C146.662888,422.662384 150.594589,422.817108 153.846146,421.711487 
	C159.404770,419.821320 164.856857,423.011688 170.387894,421.798126 
	C172.974396,421.230652 175.635941,421.005280 178.368576,420.609650 
	C178.936752,417.900909 178.609207,414.382782 180.177567,412.971283 
	C184.301147,409.260071 188.011337,405.540710 189.629715,400.090576 
	C189.716721,399.797546 190.566071,399.459717 190.942490,399.564941 
	C195.676971,400.888855 200.453918,397.937469 205.179733,399.757782 
	C207.297668,400.573578 208.488052,402.453217 210.998184,403.241486 
	C219.001907,405.754883 227.291870,403.325470 235.202942,405.560089 
	C237.744781,406.278046 238.823456,404.736084 238.824768,402.231262 
	C238.832275,387.890564 240.354980,373.632507 241.840393,359.410950 
	C242.509293,353.006805 239.123260,348.346558 237.290787,343.028076 
	C235.865417,338.891174 236.925415,336.002411 239.688263,333.118347 
	C242.185501,330.511536 245.017166,328.165955 247.024536,324.777863 
	C244.246826,322.865814 241.154877,322.881470 238.306015,322.420410 
	C233.164749,321.588379 228.309418,319.921173 223.472778,318.134674 
	C221.899002,317.553375 219.933121,316.720917 220.768646,314.678436 
	C221.528992,312.819763 222.715302,310.803284 225.489334,311.163452 
	C229.208298,311.646393 233.532089,313.958130 236.527206,311.388062 
	C239.557953,308.787384 235.869202,304.555939 236.633057,300.993317 
	C236.904144,299.728973 236.688416,298.329742 236.536758,297.010284 
	C235.605667,288.909119 234.360657,287.606232 226.255219,286.139984 
	C215.785355,284.246002 205.324783,282.296631 194.835205,280.518616 
	C192.230789,280.077148 189.509293,279.928284 186.878159,280.127411 
	C181.819855,280.510345 178.070770,284.395355 177.379425,289.517395 
	C176.700409,294.548065 179.005417,298.773926 183.562393,300.840668 
	C185.022980,301.503052 186.489899,302.151550 188.534042,303.065887 
	C184.568619,306.045654 181.096039,305.189056 177.302002,304.516510 
	C171.096405,303.416565 167.407333,300.795166 167.917252,293.926208 
	C168.049637,292.142914 167.441177,290.305328 167.178848,288.491852 
	C165.665878,278.032745 168.558777,273.822266 178.941681,271.407776 
	C180.234497,271.107147 181.545883,270.718048 182.855728,270.689026 
	C187.655624,270.582520 190.492828,268.391846 191.628601,263.593750 
	C192.762161,258.804932 195.788666,256.113739 201.053360,256.704987 
	C205.297485,257.181641 207.232758,255.018387 207.407486,250.983719 
	C207.832443,241.170090 208.183395,231.353027 208.658401,221.541901 
	C208.884003,216.882004 204.848785,214.331223 203.472656,210.523315 
	C201.495667,205.052856 196.984711,206.459412 192.980545,206.157074 
	C188.174057,205.794174 183.368958,205.338730 178.590942,204.712250 
	C176.899261,204.490433 174.517075,204.425980 174.541107,201.897675 
	C174.562653,199.632568 175.743561,197.626877 177.978638,196.844681 
	C179.672409,196.251923 181.560654,195.987427 183.365280,195.974197 
	C201.360718,195.842377 219.356857,195.812790 237.352478,195.701462 
	C240.390167,195.682678 243.007538,196.327164 244.519424,199.226959 
	C246.316162,202.673126 244.954681,205.041595 241.048004,205.282028 
	C239.553635,205.373993 238.044601,205.389114 236.550873,205.297806 
	C232.875031,205.073135 231.371811,206.284027 229.014557,209.940948 
	C219.178238,225.200439 224.177017,242.027023 222.427200,258.055298 
	C221.867767,263.179749 227.568451,264.051666 231.113144,264.536682 
	C234.983627,265.066193 238.959961,265.652863 242.946960,265.763092 
	C246.283630,265.855316 248.039291,264.461578 249.573105,261.647308 
	C252.287399,256.667114 253.018570,250.878998 256.247528,246.121155 
	C257.208771,244.704788 257.690155,243.129349 259.905212,243.609451 
	C263.353699,244.356918 264.009613,242.103622 264.642853,239.389481 
	C266.373138,231.973526 264.159912,224.108276 267.453796,216.836243 
	C268.278259,215.016006 266.624786,213.024277 265.784180,211.233536 
	C261.821228,202.791748 257.911377,194.322342 253.762772,185.971985 
	C252.427109,183.283554 252.397842,181.134247 253.981094,178.544128 
	C256.822327,173.896057 259.326416,169.041901 262.185242,163.888367 
	C270.240387,172.828705 272.921600,184.364960 278.872406,193.434189 
	C282.262726,192.989929 281.249664,190.014069 283.321014,189.137375 
	C284.901947,190.363647 284.606781,193.180969 287.340271,194.177597 
	C290.613708,189.595261 290.053131,183.860245 291.520813,178.756714 
	C291.977020,177.170288 291.950806,175.447998 292.376770,173.849548 
	C295.252655,163.056610 295.205414,152.544952 289.769165,142.430267 
	C287.826172,138.815201 287.508453,134.866776 287.647156,130.792618 
	C287.856842,124.632866 287.813873,118.463898 287.839355,112.298683 
	C287.861572,106.922844 288.169312,101.503609 290.916382,96.794502 
	C295.173309,89.497078 294.564240,81.852570 293.445984,74.050713 
	C293.284851,72.926590 293.027588,71.594002 293.452087,70.642082 
	C298.469482,59.391212 299.860107,46.930462 305.068634,35.768120 
	C310.241455,24.682247 317.791870,16.643549 331.107758,16.403742 
	C334.767303,16.337837 338.440308,15.836786 342.079468,16.037325 
	C353.470367,16.665031 362.122040,21.455210 366.649139,32.535088 
	C368.729858,37.627636 370.629517,42.764885 372.377350,47.976288 
	C373.264282,50.620731 372.488586,52.139828 370.425934,53.926655 
	C356.726562,65.793961 358.595642,62.744003 363.074982,79.047447 
	C365.182343,86.717644 368.445526,94.060783 369.019501,102.138504 
	C369.208527,104.798424 369.780579,107.304184 372.038605,109.279671 
	C373.954163,110.955566 373.708649,114.017067 372.347565,115.237549 
	C367.132996,119.913452 368.204865,126.255447 367.509796,131.959824 
	C366.838654,137.468277 365.543915,142.356781 361.527679,146.307159 
	C361.173340,146.655701 360.932556,147.123505 360.565979,147.455170 
	C346.722321,159.980881 344.554901,176.610733 343.978973,193.911835 
	C343.840820,198.061295 345.928345,198.987106 349.233093,199.519958 
	C352.472412,200.042282 354.718292,199.515198 355.457062,195.796539 
	C356.071106,192.705566 357.085571,189.694138 358.126587,185.946014 
	C360.239288,181.468307 362.148071,177.692047 364.056824,173.915771 
	C365.966553,171.404938 368.240784,169.089493 369.712433,166.343857 
	C373.090607,160.041367 378.697174,156.896683 385.131866,154.495224 
	C386.918732,156.093109 386.011749,158.173203 385.930634,160.024292 
	C385.442566,171.162720 384.776459,182.293854 384.354095,193.434418 
	C384.156555,198.644867 383.998932,203.618988 387.303802,208.557983 
	C391.851868,215.354874 389.919312,223.341904 389.004425,230.918304 
	C387.429840,243.958008 385.331268,256.952698 384.297974,270.033081 
	C383.608307,278.763245 384.714752,287.594727 383.381439,296.375488 
	C382.151123,304.477875 377.907501,308.282654 369.772949,308.410614 
	C364.300720,308.496735 358.828064,309.073212 353.374939,309.622284 
	C350.940430,309.867371 348.828400,310.789520 348.960602,313.941254 
	C349.105042,317.384735 346.748962,318.684052 343.899567,318.973267 
	C335.912354,319.784088 327.939178,319.672394 320.255554,316.994843 
	C314.613647,315.028778 308.283447,319.345734 308.396576,325.274048 
	C308.424194,326.721497 309.338470,327.334625 310.547943,327.623230 
	C315.587677,328.825867 319.620483,332.584778 324.916626,333.210968 
	C326.073853,333.347809 327.648926,333.657867 327.813599,335.908356 
	C320.952271,335.908356 314.110687,336.066498 307.282562,335.831665 
	C304.494415,335.735840 301.735168,334.790619 298.963379,334.228790 
	C289.033569,332.216156 280.961273,338.977234 281.227203,349.071350 
	C281.284241,351.235870 281.361084,353.404327 281.294647,355.566833 
	C281.099121,361.931915 278.762543,364.844360 273.591949,365.299103 
	C267.216827,365.859802 264.171356,363.555817 262.816925,357.025391 
	C262.284668,354.458954 261.925995,351.856567 261.434845,348.954865 
	C259.126892,349.950409 258.997772,351.641235 259.050446,353.234589 
	C259.391388,363.542358 258.987305,373.970428 260.505432,384.107758 
	C261.417908,390.200836 261.968689,396.215027 262.256256,402.321045 
	C262.460938,406.667419 264.572906,408.277252 268.807159,407.390228 
	C281.015228,404.832733 293.237976,402.333374 305.392700,399.540161 
	C308.959778,398.720459 310.777374,399.751892 311.733734,403.072693 
	C312.572144,405.983734 313.584991,408.372467 317.176178,409.412445 
	C319.875610,410.194153 320.585693,413.459259 320.106049,416.222504 
	C319.538055,419.494965 316.735504,418.242126 314.815155,418.143341 
	C311.166504,417.955627 307.536224,417.410522 303.153442,416.855316 
	C298.064362,412.025787 292.955261,416.326233 288.293060,415.375916 
	C293.167542,416.330261 298.057190,417.107635 303.038727,416.963654 
M313.136658,270.752014 
	C300.484894,271.608734 289.313507,277.240082 278.526001,282.929138 
	C267.901520,288.532135 260.424500,297.939606 255.552338,309.131134 
	C254.797775,310.864441 254.857956,312.217773 256.461914,313.521545 
	C258.073120,314.831177 259.109467,314.044983 260.361511,313.032562 
	C262.436615,311.354645 264.383453,309.620026 266.008057,307.443817 
	C272.341461,298.960022 279.901276,291.785797 289.010620,286.280090 
	C297.907227,280.902985 306.414337,274.806580 316.849915,272.130463 
	C315.834564,270.826324 314.784241,270.897644 313.136658,270.752014 
M351.229950,262.837494 
	C351.327271,266.673828 349.854736,270.695984 352.263519,274.343689 
	C357.398926,273.641815 359.495697,269.056854 363.247040,266.960541 
	C360.263336,253.550156 354.035767,241.096054 351.321594,227.423203 
	C350.177216,233.995651 348.994843,240.584412 350.891449,247.153931 
	C352.323059,252.112793 352.512024,256.959106 351.229950,262.837494 
M357.736633,97.301537 
	C359.699005,97.767708 361.341522,96.950462 361.408020,95.084320 
	C361.569763,90.541817 357.828369,88.652023 354.481628,85.493729 
	C354.645966,90.156181 350.685028,94.737633 357.736633,97.301537 
M252.627563,436.018951 
	C252.457214,431.957825 253.237228,427.809509 251.727081,423.562469 
	C248.371490,427.732239 249.313583,432.363922 249.073135,436.752838 
	C248.999481,438.096863 248.067337,440.158081 250.315552,440.400543 
	C252.770676,440.665314 252.475311,438.463409 252.627563,436.018951 
M184.073532,419.166077 
	C184.002167,419.380219 182.925110,418.971436 183.732224,419.711151 
	C183.825195,419.796417 184.056717,419.758301 184.218567,419.736694 
	C191.817749,418.722900 199.416321,417.704559 207.796875,416.582031 
	C204.286240,414.734192 202.395721,414.472992 199.120636,416.298492 
	C195.043488,418.571045 189.530090,418.266815 184.073532,419.166077 
z"/>
<path fill="#000000" opacity="1.000000" stroke="none" 
	d="
M223.030930,296.368286 
	C210.861938,296.123169 199.738297,292.122314 188.081345,290.389679 
	C188.638107,287.121368 189.960663,285.746979 192.614624,286.237579 
	C202.412628,288.048737 212.215164,289.841309 221.983780,291.801422 
	C224.679932,292.342407 226.615982,293.636505 223.030930,296.368286 
z"/>
<path fill="#000000" opacity="1.000000" stroke="none" 
	d="
M364.112000,173.611435 
	C362.148071,177.692047 360.239288,181.468307 358.196350,185.552246 
	C356.338623,190.515320 352.723602,193.488922 348.469604,196.103424 
	C351.752686,187.752106 352.417572,178.141281 360.636902,172.354919 
	C361.557800,171.706604 364.220459,168.615128 364.112000,173.611435 
z"/>
<path fill="#000000" opacity="1.000000" stroke="none" 
	d="
M264.759583,107.064865 
	C269.702026,106.342049 273.759155,108.572678 278.165497,109.073570 
	C276.008972,116.487411 276.023651,116.427910 268.442108,114.556007 
	C265.913757,113.931747 263.289001,113.697800 260.573425,113.263863 
	C261.176147,110.490578 262.684021,108.794640 264.759583,107.064865 
z"/>
<path fill="#000000" opacity="1.000000" stroke="none" 
	d="
M202.437958,306.024536 
	C208.351593,308.040741 200.521118,309.833984 203.881104,312.068451 
	C198.870850,311.819916 196.377914,310.483185 196.674652,306.115234 
	C198.552124,305.048187 200.339096,306.249176 202.437958,306.024536 
z"/>
</svg>