<svg version="1.1" id="Layer_1" xmlns="http://www.w3.org/2000/svg" xmlns:xlink="http://www.w3.org/1999/xlink" x="0px" y="0px"
	 width="100%" viewBox="0 0 880 384" enable-background="new 0 0 880 384" xml:space="preserve">
<path fill="#000000" opacity="1.000000" stroke="none" 
	d="
M881.000000,151.000000 
	C881.000000,156.354935 881.000000,161.709854 880.736206,167.733780 
	C875.988220,173.235352 870.633606,176.820099 864.670776,179.579224 
	C832.177307,194.614532 799.692932,209.669586 767.210022,224.727798 
	C716.144775,248.400284 665.076782,272.066620 614.021973,295.761566 
	C562.058594,319.878204 510.196625,344.215759 458.123749,368.093414 
	C423.956726,383.760376 389.510376,383.794189 355.143433,368.206055 
	C341.827728,362.166321 328.487122,356.210968 315.355133,349.751160 
	C301.040863,342.709747 286.198761,336.750092 271.703033,330.066681 
	C251.901199,320.936798 232.188965,311.611481 212.474335,302.293732 
	C173.208252,283.735352 133.877762,265.309662 94.754326,246.454697 
	C76.476212,237.645828 58.623127,227.955658 40.567421,218.684387 
	C32.875511,214.734756 24.709290,211.630280 17.921591,206.071350 
	C8.068972,198.002335 8.447874,184.602219 18.654989,177.049728 
	C25.575420,171.929123 33.476154,168.782974 41.393349,165.714859 
	C95.583405,144.714813 149.799225,123.781250 204.002441,102.815193 
	C283.981567,71.878899 363.924347,40.848228 443.954346,10.044228 
	C467.648499,0.924211 492.010406,-0.220045 516.529175,6.418776 
	C535.528931,11.563260 553.489807,19.698397 571.841248,26.673717 
	C667.406555,62.997814 762.900024,99.510925 858.393921,136.022598 
	C866.995056,139.311188 875.228149,143.348419 881.000000,151.000000 
M394.188049,307.437805 
	C391.040894,306.380768 387.169891,304.602875 385.106659,307.968414 
	C383.116760,311.214325 388.482422,311.201569 389.478180,314.251495 
	C382.787994,319.515656 382.530640,325.549683 389.170319,331.128082 
	C388.150146,333.046967 386.724640,333.274994 385.607605,333.946960 
	C384.482635,334.623627 382.960358,335.100708 383.234650,336.756714 
	C383.532623,338.555878 385.225433,338.875397 386.674713,339.154175 
	C389.237854,339.647217 391.731354,338.930603 393.865845,337.695557 
	C397.315155,335.699768 400.658356,336.009308 404.376434,336.757782 
	C417.506073,339.400818 430.541321,338.996887 443.133820,334.054077 
	C448.319550,332.018585 453.583099,329.268066 453.752502,322.779297 
	C453.926971,316.093811 448.395874,313.573395 443.327057,311.454071 
	C430.784424,306.209747 417.716614,306.171875 404.596436,308.628448 
	C401.163635,309.271210 398.043274,309.430756 394.188049,307.437805 
M368.646515,323.777954 
	C370.783691,325.028687 373.051727,324.861786 375.292877,324.245056 
	C376.456879,323.924713 377.614441,322.994873 376.973969,321.748322 
	C375.832214,319.526093 373.406311,319.498016 371.369843,319.712006 
	C369.511719,319.907227 366.624939,319.949524 368.646515,323.777954 
z"/>
<path fill="#000000" opacity="1.000000" stroke="none" 
	d="
M397.024414,324.458832 
	C396.101715,319.813934 398.807495,317.347839 402.000366,315.903137 
	C413.491669,310.703552 425.152588,310.675568 436.661194,315.958130 
	C439.441467,317.234314 441.788361,319.326263 441.694305,322.781860 
	C441.601044,326.207855 439.175812,328.167023 436.387054,329.428253 
	C425.200562,334.487549 413.889282,334.419495 402.584106,329.785370 
	C400.217957,328.815430 398.398621,327.112915 397.024414,324.458832 
M427.349640,317.837921 
	C421.441864,316.228546 415.560120,315.665802 409.826294,318.473022 
	C407.979156,319.377319 406.292175,320.593048 406.489014,322.965179 
	C406.662170,325.051849 408.277679,326.062317 410.010284,326.800873 
	C415.624908,329.194183 421.367828,329.084961 427.101166,327.382477 
	C429.353577,326.713684 431.762238,325.589355 432.189850,323.075012 
	C432.672241,320.238525 430.070251,319.276978 427.349640,317.837921 
z"/>
<path fill="#000000" opacity="1.000000" stroke="none" 
	d="
M420.905945,320.727844 
	C423.515900,321.835052 424.182770,323.244293 421.389832,324.197266 
	C419.307648,324.907776 416.892731,325.036743 415.250305,322.720306 
	C416.250732,319.833984 418.582886,320.703613 420.905945,320.727844 
z"/>
</svg>